<svg viewBox="0 0 330 200" xmlns="http://www.w3.org/2000/svg"><g><g><g><g><g><line x1="60" y1="178" x2="55" y2="178" style="visibility: inherit;" fill="rgb(0, 0, 0)" stroke="rgb(204, 204, 204)" stroke-width="1px"></line><line x1="60" y1="165.2857142857143" x2="55" y2="165.2857142857143" style="visibility: inherit;" fill="rgb(0, 0, 0)" stroke="rgb(204, 204, 204)" stroke-width="1px"></line><line x1="60" y1="152.57142857142856" x2="55" y2="152.57142857142856" style="visibility: inherit;" fill="rgb(0, 0, 0)" stroke="rgb(204, 204, 204)" stroke-width="1px"></line><line x1="60" y1="139.85714285714286" x2="55" y2="139.85714285714286" style="visibility: inherit;" fill="rgb(0, 0, 0)" stroke="rgb(204, 204, 204)" stroke-width="1px"></line><line x1="60" y1="127.14285714285715" x2="55" y2="127.14285714285715" style="visibility: inherit;" fill="rgb(0, 0, 0)" stroke="rgb(204, 204, 204)" stroke-width="1px"></line><line x1="60" y1="114.42857142857143" x2="55" y2="114.42857142857143" style="visibility: inherit;" fill="rgb(0, 0, 0)" stroke="rgb(204, 204, 204)" stroke-width="1px"></line><line x1="60" y1="101.71428571428571" x2="55" y2="101.71428571428571" style="visibility: inherit;" fill="rgb(0, 0, 0)" stroke="rgb(204, 204, 204)" stroke-width="1px"></line><line x1="60" y1="89.00000000000001" x2="55" y2="89.00000000000001" style="visibility: inherit;" fill="rgb(0, 0, 0)" stroke="rgb(204, 204, 204)" stroke-width="1px"></line><line x1="60" y1="76.28571428571429" x2="55" y2="76.28571428571429" style="visibility: inherit;" fill="rgb(0, 0, 0)" stroke="rgb(204, 204, 204)" stroke-width="1px"></line><line x1="60" y1="63.57142857142857" x2="55" y2="63.57142857142857" style="visibility: inherit;" fill="rgb(0, 0, 0)" stroke="rgb(204, 204, 204)" stroke-width="1px"></line><line x1="60" y1="50.857142857142875" x2="55" y2="50.857142857142875" style="visibility: inherit;" fill="rgb(0, 0, 0)" stroke="rgb(204, 204, 204)" stroke-width="1px"></line><line x1="60" y1="38.14285714285714" x2="55" y2="38.14285714285714" style="visibility: inherit;" fill="rgb(0, 0, 0)" stroke="rgb(204, 204, 204)" stroke-width="1px"></line><line x1="60" y1="25.428571428571445" x2="55" y2="25.428571428571445" style="visibility: inherit;" fill="rgb(0, 0, 0)" stroke="rgb(204, 204, 204)" stroke-width="1px"></line><line x1="60" y1="12.714285714285722" x2="55" y2="12.714285714285722" style="visibility: inherit;" fill="rgb(0, 0, 0)" stroke="rgb(204, 204, 204)" stroke-width="1px"></line><line x1="60" y1="0" x2="55" y2="0" style="visibility: inherit;" fill="rgb(0, 0, 0)" stroke="rgb(204, 204, 204)" stroke-width="1px"></line></g><g transform="translate(50, 0)"><text x="0" y="178" dx="0em" dy="0.3em" style="text-anchor: end; visibility: hidden; font-family: &quot;Helvetica Neue&quot;, sans-serif; font-size: 12px; font-weight: 200;" fill="rgb(50, 49, 63)" stroke="none" stroke-width="1px">0.04</text><text x="0" y="165.2857142857143" dx="0em" dy="0.3em" style="text-anchor: end; visibility: inherit; font-family: &quot;Helvetica Neue&quot;, sans-serif; font-size: 12px; font-weight: 200;" fill="rgb(50, 49, 63)" stroke="none" stroke-width="1px">0.045</text><text x="0" y="152.57142857142856" dx="0em" dy="0.3em" style="text-anchor: end; visibility: hidden; font-family: &quot;Helvetica Neue&quot;, sans-serif; font-size: 12px; font-weight: 200;" fill="rgb(50, 49, 63)" stroke="none" stroke-width="1px">0.05</text><text x="0" y="139.85714285714286" dx="0em" dy="0.3em" style="text-anchor: end; visibility: inherit; font-family: &quot;Helvetica Neue&quot;, sans-serif; font-size: 12px; font-weight: 200;" fill="rgb(50, 49, 63)" stroke="none" stroke-width="1px">0.055</text><text x="0" y="127.14285714285715" dx="0em" dy="0.3em" style="text-anchor: end; visibility: hidden; font-family: &quot;Helvetica Neue&quot;, sans-serif; font-size: 12px; font-weight: 200;" fill="rgb(50, 49, 63)" stroke="none" stroke-width="1px">0.06</text><text x="0" y="114.42857142857143" dx="0em" dy="0.3em" style="text-anchor: end; visibility: inherit; font-family: &quot;Helvetica Neue&quot;, sans-serif; font-size: 12px; font-weight: 200;" fill="rgb(50, 49, 63)" stroke="none" stroke-width="1px">0.065</text><text x="0" y="101.71428571428571" dx="0em" dy="0.3em" style="text-anchor: end; visibility: hidden; font-family: &quot;Helvetica Neue&quot;, sans-serif; font-size: 12px; font-weight: 200;" fill="rgb(50, 49, 63)" stroke="none" stroke-width="1px">0.07</text><text x="0" y="89.00000000000001" dx="0em" dy="0.3em" style="text-anchor: end; visibility: inherit; font-family: &quot;Helvetica Neue&quot;, sans-serif; font-size: 12px; font-weight: 200;" fill="rgb(50, 49, 63)" stroke="none" stroke-width="1px">0.075</text><text x="0" y="76.28571428571429" dx="0em" dy="0.3em" style="text-anchor: end; visibility: hidden; font-family: &quot;Helvetica Neue&quot;, sans-serif; font-size: 12px; font-weight: 200;" fill="rgb(50, 49, 63)" stroke="none" stroke-width="1px">0.08</text><text x="0" y="63.57142857142857" dx="0em" dy="0.3em" style="text-anchor: end; visibility: inherit; font-family: &quot;Helvetica Neue&quot;, sans-serif; font-size: 12px; font-weight: 200;" fill="rgb(50, 49, 63)" stroke="none" stroke-width="1px">0.085</text><text x="0" y="50.857142857142875" dx="0em" dy="0.3em" style="text-anchor: end; visibility: hidden; font-family: &quot;Helvetica Neue&quot;, sans-serif; font-size: 12px; font-weight: 200;" fill="rgb(50, 49, 63)" stroke="none" stroke-width="1px">0.09</text><text x="0" y="38.14285714285714" dx="0em" dy="0.3em" style="text-anchor: end; visibility: inherit; font-family: &quot;Helvetica Neue&quot;, sans-serif; font-size: 12px; font-weight: 200;" fill="rgb(50, 49, 63)" stroke="none" stroke-width="1px">0.095</text><text x="0" y="25.428571428571445" dx="0em" dy="0.3em" style="text-anchor: end; visibility: hidden; font-family: &quot;Helvetica Neue&quot;, sans-serif; font-size: 12px; font-weight: 200;" fill="rgb(50, 49, 63)" stroke="none" stroke-width="1px">0.1</text><text x="0" y="12.714285714285722" dx="0em" dy="0.3em" style="text-anchor: end; visibility: inherit; font-family: &quot;Helvetica Neue&quot;, sans-serif; font-size: 12px; font-weight: 200;" fill="rgb(50, 49, 63)" stroke="none" stroke-width="1px">0.105</text><text x="0" y="0" dx="0em" dy="0.3em" style="text-anchor: end; visibility: hidden; font-family: &quot;Helvetica Neue&quot;, sans-serif; font-size: 12px; font-weight: 200;" fill="rgb(50, 49, 63)" stroke="none" stroke-width="1px">0.11</text></g><line x1="60" y1="0" x2="60" y2="178" fill="rgb(0, 0, 0)" stroke="rgb(204, 204, 204)" stroke-width="1px"></line></g></g><g transform="translate(60, 0)" clip-path="url(#clip_0)"><clipPath id="clip_0"><rect width="270" height="178"></rect></clipPath><g><g><g><line x1="0" y1="0" x2="0" y2="178" fill="rgb(0, 0, 0)" stroke="rgb(60, 60, 60)" stroke-width="1px" opacity="0.25"></line><line x1="38.57142857142857" y1="0" x2="38.57142857142857" y2="178" fill="rgb(0, 0, 0)" stroke="rgb(60, 60, 60)" stroke-width="1px" opacity="0.25"></line><line x1="77.14285714285714" y1="0" x2="77.14285714285714" y2="178" fill="rgb(0, 0, 0)" stroke="rgb(60, 60, 60)" stroke-width="1px" opacity="0.25"></line><line x1="115.71428571428571" y1="0" x2="115.71428571428571" y2="178" fill="rgb(0, 0, 0)" stroke="rgb(60, 60, 60)" stroke-width="1px" opacity="0.25"></line><line x1="154.28571428571428" y1="0" x2="154.28571428571428" y2="178" fill="rgb(0, 0, 0)" stroke="rgb(60, 60, 60)" stroke-width="1px" opacity="0.25"></line><line x1="192.85714285714286" y1="0" x2="192.85714285714286" y2="178" fill="rgb(0, 0, 0)" stroke="rgb(60, 60, 60)" stroke-width="1px" opacity="0.25"></line><line x1="231.42857142857142" y1="0" x2="231.42857142857142" y2="178" fill="rgb(0, 0, 0)" stroke="rgb(60, 60, 60)" stroke-width="1px" opacity="0.25"></line><line x1="270" y1="0" x2="270" y2="178" fill="rgb(0, 0, 0)" stroke="rgb(60, 60, 60)" stroke-width="1px" opacity="0.25"></line></g><g><line x1="0" y1="178" x2="270" y2="178" fill="rgb(0, 0, 0)" stroke="rgb(60, 60, 60)" stroke-width="1px" opacity="0.25"></line><line x1="0" y1="165.2857142857143" x2="270" y2="165.2857142857143" fill="rgb(0, 0, 0)" stroke="rgb(60, 60, 60)" stroke-width="1px" opacity="0.25"></line><line x1="0" y1="152.57142857142856" x2="270" y2="152.57142857142856" fill="rgb(0, 0, 0)" stroke="rgb(60, 60, 60)" stroke-width="1px" opacity="0.25"></line><line x1="0" y1="139.85714285714286" x2="270" y2="139.85714285714286" fill="rgb(0, 0, 0)" stroke="rgb(60, 60, 60)" stroke-width="1px" opacity="0.25"></line><line x1="0" y1="127.14285714285715" x2="270" y2="127.14285714285715" fill="rgb(0, 0, 0)" stroke="rgb(60, 60, 60)" stroke-width="1px" opacity="0.25"></line><line x1="0" y1="114.42857142857143" x2="270" y2="114.42857142857143" fill="rgb(0, 0, 0)" stroke="rgb(60, 60, 60)" stroke-width="1px" opacity="0.25"></line><line x1="0" y1="101.71428571428571" x2="270" y2="101.71428571428571" fill="rgb(0, 0, 0)" stroke="rgb(60, 60, 60)" stroke-width="1px" opacity="0.25"></line><line x1="0" y1="89.00000000000001" x2="270" y2="89.00000000000001" fill="rgb(0, 0, 0)" stroke="rgb(60, 60, 60)" stroke-width="1px" opacity="0.25"></line><line x1="0" y1="76.28571428571429" x2="270" y2="76.28571428571429" fill="rgb(0, 0, 0)" stroke="rgb(60, 60, 60)" stroke-width="1px" opacity="0.25"></line><line x1="0" y1="63.57142857142857" x2="270" y2="63.57142857142857" fill="rgb(0, 0, 0)" stroke="rgb(60, 60, 60)" stroke-width="1px" opacity="0.25"></line><line x1="0" y1="50.857142857142875" x2="270" y2="50.857142857142875" fill="rgb(0, 0, 0)" stroke="rgb(60, 60, 60)" stroke-width="1px" opacity="0.25"></line><line x1="0" y1="38.14285714285714" x2="270" y2="38.14285714285714" fill="rgb(0, 0, 0)" stroke="rgb(60, 60, 60)" stroke-width="1px" opacity="0.25"></line><line x1="0" y1="25.428571428571445" x2="270" y2="25.428571428571445" fill="rgb(0, 0, 0)" stroke="rgb(60, 60, 60)" stroke-width="1px" opacity="0.25"></line><line x1="0" y1="12.714285714285722" x2="270" y2="12.714285714285722" fill="rgb(0, 0, 0)" stroke="rgb(60, 60, 60)" stroke-width="1px" opacity="0.25"></line><line x1="0" y1="0" x2="270" y2="0" fill="rgb(0, 0, 0)" stroke="rgb(60, 60, 60)" stroke-width="1px" opacity="0.25"></line></g></g></g><g><g><line x1="0" y1="279.7142857142857" x2="270" y2="279.7142857142857" fill="rgb(0, 0, 0)" stroke="rgb(153, 153, 153)" stroke-width="1.5px"></line></g></g><g><g><line x1="38.57142857142857" y1="0" x2="38.57142857142857" y2="178" fill="rgb(0, 0, 0)" stroke="rgb(153, 153, 153)" stroke-width="1.5px"></line></g></g><g><g><g><g><g><path stroke="rgb(0, 119, 187)" stroke-width="2px" d="M38.57142857142857,57.51529977151331L46.285714285714285,45.873819514094436L54,10.144339359225341L61.714285714285715,35.02661219934757L69.42857142857142,39.61628353713735L77.14285714285714,34.97253064669928L84.85714285714286,35.604122169499306L92.57142857142857,50.58401954562939L100.28571428571429,50.21761546612424L108,60.06310960785977L115.71428571428571,67.66295312191792L123.42857142857143,69.78635283252734L131.14285714285714,77.28856787836492L138.85714285714283,89.88907933977165L146.57142857142856,79.03395448539341L154.28571428571428,70.9038717930039L162,77.03728166671827L169.71428571428572,91.50964114086197L177.42857142857142,39.016311539271555L185.14285714285714,72.47246309390471L192.85714285714286,74.71657095584787L200.57142857142858,84.68992684521109L208.2857142857143,86.4901180394209L216,108.77665679224775L223.71428571428572,109.10451419758516L231.42857142857142,114.25289652338705L239.14285714285714,115.88167526209702L246.85714285714286,106.51612397669082L254.57142857142856,96.79089896108343L262.2857142857143,90.09262807094396" style="fill: none;" fill="none"></path></g><g><path stroke="rgb(255, 112, 67)" stroke-width="2px" d="M38.57142857142857,89.2924770968301L46.285714285714285,85.59798266413371L54,89.40704891428287L61.714285714285715,88.04465197358886L69.42857142857142,93.48473621435028L77.14285714285714,96.55233093832116L84.85714285714286,96.87273865970577L92.57142857142857,98.61687567059717L100.28571428571429,99.09298911813929L108,101.03877201784502L115.71428571428571,100.19997228405987L123.42857142857143,109.21871302742825L131.14285714285714,112.43986562466132L138.85714285714283,119.74593123865446L146.57142857142856,119.42788269885753L154.28571428571428,119.43635241868992L162,121.9378837280495L169.71428571428572,122.00276950457389L177.42857142857142,128.34409766945902L185.14285714285714,128.76205471498227L192.85714285714286,132.08671482976135L200.57142857142858,135.46911813867408L208.2857142857143,138.24469352387354L216,144.3400284638997L223.71428571428572,144.63967743111604L231.42857142857142,149.04764843372075L239.14285714285714,150.95088480138253L246.85714285714286,151.03687003844047L254.57142857142856,153.9510796017388L262.2857142857143,154.40126405496963" style="fill: none;" fill="none"></path></g></g></g></g><g opacity="0.2"><g><g><g><path stroke="rgb(0, 119, 187)" stroke-width="2px" d="M38.57142857142857,57.51529977151327L46.285714285714285,38.83072395835603L54,-24.54987910815646L61.714285714285715,64.69797920329232L69.42857142857142,45.704227498599465L77.14285714285714,28.436453666005832L84.85714285714286,36.52405847821919L92.57142857142857,72.84721457958223L100.28571428571429,49.666487344673726L108,74.97916224173137L115.71428571428571,79.22674526487079L123.42857142857143,73.02572154998781L131.14285714285714,88.75167031799045L138.85714285714283,109.16051888465883L146.57142857142856,62.42238477298193L154.28571428571428,58.45809773036413L162,86.4284651875496L169.71428571428572,113.67184586184366L177.42857142857142,-41.375383070537L185.14285714285714,123.71177356583732L192.85714285714286,78.15360046284539L200.57142857142858,99.96517430884498L208.2857142857143,89.24732934577125L216,142.91140886715482L223.71428571428572,109.60667263610023L231.42857142857142,122.13836591584342L239.14285714285714,118.3763817208154L246.85714285714286,92.17143721239908L254.57142857142856,81.89531269243786L262.2857142857143,79.83325594663621" style="fill: none;" fill="none"></path></g><g><path stroke="rgb(255, 112, 67)" stroke-width="2px" d="M38.57142857142857,89.2924770968301L46.285714285714285,83.36281353235246L54,93.10574746983393L61.714285714285715,86.42003432341986L69.42857142857142,100.70070563043868L77.14285714285714,100.86996706894466L84.85714285714286,97.33942430359977L92.57142857142857,101.20902042729514L100.28571428571429,99.80913701227733L108,103.98665860721044L115.71428571428571,98.92366892950876L123.42857142857143,122.97732215268272L131.14285714285714,117.36166564907347L138.85714285714283,130.9199539933886L146.57142857142856,118.94117383446013L154.28571428571428,119.44931811945779L162,125.76810869148801L169.71428571428572,122.1021321458476L177.42857142857142,138.055619516543L185.14285714285714,129.40217110088895L192.85714285714286,137.1786959724767L200.57142857142858,140.64962589740753L208.2857142857143,142.49582410284452L216,153.67583198632514L223.71428571428572,145.09863079019956L231.42857142857142,155.79907407079423L239.14285714285714,153.86596218177252L246.85714285714286,151.16856877718652L254.57142857142856,158.4146123102733L262.2857142857143,155.090786755085" style="fill: none;" fill="none"></path></g></g></g></g></g></g><g transform="translate(60, 178)" clip-path="url(#clip_1)"><clipPath id="clip_1"><rect width="270" height="22"></rect></clipPath><g><g><line x1="0" y1="0" x2="0" y2="5" style="visibility: inherit;" fill="rgb(0, 0, 0)" stroke="rgb(204, 204, 204)" stroke-width="1px"></line><line x1="38.57142857142857" y1="0" x2="38.57142857142857" y2="5" style="visibility: inherit;" fill="rgb(0, 0, 0)" stroke="rgb(204, 204, 204)" stroke-width="1px"></line><line x1="77.14285714285714" y1="0" x2="77.14285714285714" y2="5" style="visibility: inherit;" fill="rgb(0, 0, 0)" stroke="rgb(204, 204, 204)" stroke-width="1px"></line><line x1="115.71428571428571" y1="0" x2="115.71428571428571" y2="5" style="visibility: inherit;" fill="rgb(0, 0, 0)" stroke="rgb(204, 204, 204)" stroke-width="1px"></line><line x1="154.28571428571428" y1="0" x2="154.28571428571428" y2="5" style="visibility: inherit;" fill="rgb(0, 0, 0)" stroke="rgb(204, 204, 204)" stroke-width="1px"></line><line x1="192.85714285714286" y1="0" x2="192.85714285714286" y2="5" style="visibility: inherit;" fill="rgb(0, 0, 0)" stroke="rgb(204, 204, 204)" stroke-width="1px"></line><line x1="231.42857142857142" y1="0" x2="231.42857142857142" y2="5" style="visibility: inherit;" fill="rgb(0, 0, 0)" stroke="rgb(204, 204, 204)" stroke-width="1px"></line><line x1="270" y1="0" x2="270" y2="5" style="visibility: inherit;" fill="rgb(0, 0, 0)" stroke="rgb(204, 204, 204)" stroke-width="1px"></line></g><g transform="translate(0, 8)"><text x="0" y="0" dx="0em" dy="0.95em" style="text-anchor: middle; visibility: hidden; font-family: &quot;Helvetica Neue&quot;, sans-serif; font-size: 12px; font-weight: 200;" fill="rgb(50, 49, 63)" stroke="none" stroke-width="1px">-5</text><text x="38.57142857142857" y="0" dx="0em" dy="0.95em" style="text-anchor: middle; visibility: inherit; font-family: &quot;Helvetica Neue&quot;, sans-serif; font-size: 12px; font-weight: 200;" fill="rgb(50, 49, 63)" stroke="none" stroke-width="1px">0</text><text x="77.14285714285714" y="0" dx="0em" dy="0.95em" style="text-anchor: middle; visibility: inherit; font-family: &quot;Helvetica Neue&quot;, sans-serif; font-size: 12px; font-weight: 200;" fill="rgb(50, 49, 63)" stroke="none" stroke-width="1px">5</text><text x="115.71428571428571" y="0" dx="0em" dy="0.95em" style="text-anchor: middle; visibility: inherit; font-family: &quot;Helvetica Neue&quot;, sans-serif; font-size: 12px; font-weight: 200;" fill="rgb(50, 49, 63)" stroke="none" stroke-width="1px">10</text><text x="154.28571428571428" y="0" dx="0em" dy="0.95em" style="text-anchor: middle; visibility: inherit; font-family: &quot;Helvetica Neue&quot;, sans-serif; font-size: 12px; font-weight: 200;" fill="rgb(50, 49, 63)" stroke="none" stroke-width="1px">15</text><text x="192.85714285714286" y="0" dx="0em" dy="0.95em" style="text-anchor: middle; visibility: inherit; font-family: &quot;Helvetica Neue&quot;, sans-serif; font-size: 12px; font-weight: 200;" fill="rgb(50, 49, 63)" stroke="none" stroke-width="1px">20</text><text x="231.42857142857142" y="0" dx="0em" dy="0.95em" style="text-anchor: middle; visibility: inherit; font-family: &quot;Helvetica Neue&quot;, sans-serif; font-size: 12px; font-weight: 200;" fill="rgb(50, 49, 63)" stroke="none" stroke-width="1px">25</text><text x="270" y="0" dx="0em" dy="0.95em" style="text-anchor: middle; visibility: hidden; font-family: &quot;Helvetica Neue&quot;, sans-serif; font-size: 12px; font-weight: 200;" fill="rgb(50, 49, 63)" stroke="none" stroke-width="1px">30</text></g><line x1="0" y1="0" x2="270" y2="0" fill="rgb(0, 0, 0)" stroke="rgb(204, 204, 204)" stroke-width="1px"></line></g></g></g></g></svg>